<svg width="25" height="24" viewBox="0 0 25 24" fill="none" xmlns="http://www.w3.org/2000/svg">
<path fill-rule="evenodd" clip-rule="evenodd" d="M8.90363 19.1173C8.4397 18.4252 8.02998 17.4222 7.92635 16.0095C7.74762 13.5168 8.4397 12.6175 8.90363 12.3085V19.1173ZM18.5131 21.841C18.5131 21.8163 18.5388 21.7906 18.5388 21.764V17.1389C18.5388 17.0876 18.5131 17.0619 18.5131 17.0372H18.0511V21.841H18.5131ZM14.3511 8.9944L13.5544 9.19974L13.272 1.51633C13.272 0.899342 12.7834 0.38596 12.1664 0.38596L10.496 0C10.0587 0 9.80299 0.360298 9.69937 0.796661C9.54536 1.49066 10.0854 2.02969 10.5227 2.00402L12.3214 2.10766L12.6294 9.40415L11.3184 9.71408L9.13467 3.80273C8.92932 3.21236 8.31136 2.87771 7.72099 3.05929L6.02498 3.21234C5.58767 3.34068 5.45931 3.77705 5.51065 4.21436C5.58765 4.93403 6.23031 5.26867 6.66762 5.11466L8.41497 4.65074L10.3933 9.91846L10.111 9.99548C9.54536 9.99548 9.05765 10.4071 8.9293 10.9462C8.33798 11.1011 6.41002 11.9491 6.71994 16.1112C6.89867 18.7066 7.97862 20.1716 8.90363 20.9673V22.767C8.90363 23.46 9.44269 24 10.111 24H15.3787C16.0461 24 16.587 23.46 16.587 22.767V22.5607H17.7165C18.0768 22.5607 18.3848 22.3306 18.4884 21.995H17.9741H17.8971V21.918V16.9602V16.8832H17.9741H18.4884C18.3848 16.5485 18.0768 16.3166 17.7165 16.3166H16.587V13.3618H16.9198C17.3828 13.3618 17.7422 13.0025 17.7422 12.5395V10.5088C17.7422 10.0478 17.3828 9.68746 16.9198 9.68746H16.5604C16.4834 9.37943 16.2781 9.12179 15.9957 8.94306L14.3511 8.9944Z" fill="white"/>
</svg>
